<?xml version="1.0" encoding="utf-8"?>
<!-- Generator: Adobe Illustrator 15.1.0, SVG Export Plug-In . SVG Version: 6.00 Build 0)  -->
<!DOCTYPE svg PUBLIC "-//W3C//DTD SVG 1.1//EN" "http://www.w3.org/Graphics/SVG/1.1/DTD/svg11.dtd">
<svg version="1.1" id="Layer_1" xmlns="http://www.w3.org/2000/svg" xmlns:xlink="http://www.w3.org/1999/xlink" x="0px" y="0px"
	 width="500px" height="400px" viewBox="0 0 500 400" enable-background="new 0 0 500 400" xml:space="preserve">
<g>
	<path fill="#071E3D" d="M206.383,279.496l5.901-15.876c2.529,1.778,5.62,2.67,9.272,2.67c2.811,0,5.01-0.914,6.604-2.74
		c1.592-1.826,2.388-4.566,2.388-8.219v-75.585h21.917v75.444c0,8.803-2.507,15.757-7.516,20.863
		c-5.013,5.104-12.013,7.657-21.004,7.657C216.266,283.711,210.411,282.306,206.383,279.496z"/>
	<path fill="#071E3D" d="M231.672,165.697c-2.528-2.34-3.793-5.244-3.793-8.71c0-3.464,1.265-6.369,3.793-8.71
		c2.529-2.34,5.807-3.513,9.835-3.513c4.026,0,7.306,1.125,9.835,3.372c2.528,2.248,3.793,5.058,3.793,8.429
		c0,3.653-1.265,6.674-3.793,9.062c-2.529,2.388-5.809,3.583-9.835,3.583C237.479,169.209,234.201,168.039,231.672,165.697z"/>
	<path fill="#071E3D" d="M283.766,251.468c-6.322-3.324-11.264-7.938-14.822-13.839c-3.561-5.9-5.339-12.596-5.339-20.09
		c0-7.492,1.778-14.19,5.339-20.09c3.559-5.901,8.5-10.513,14.822-13.838c6.322-3.324,13.463-4.988,21.425-4.988
		c7.96,0,15.079,1.664,21.354,4.988c6.275,3.326,11.191,7.938,14.753,13.838c3.558,5.9,5.339,12.598,5.339,20.09
		c0,7.494-1.781,14.19-5.339,20.09c-3.562,5.901-8.478,10.515-14.753,13.839c-6.275,3.325-13.395,4.987-21.354,4.987
		C297.229,256.455,290.088,254.793,283.766,251.468z M319.029,232.782c3.605-3.793,5.409-8.873,5.409-15.244
		c0-6.368-1.804-11.45-5.409-15.244c-3.606-3.793-8.219-5.689-13.839-5.689c-5.619,0-10.255,1.896-13.909,5.689
		c-3.652,3.793-5.479,8.875-5.479,15.244c0,6.371,1.826,11.45,5.479,15.244c3.654,3.793,8.29,5.69,13.909,5.69
		C310.811,238.472,315.423,236.575,319.029,232.782z"/>
	<path fill="#071E3D" d="M358.367,151.085h21.917v104.246h-21.917V151.085z"/>
	<path fill="#071E3D" d="M447.523,251.678c-2.156,1.594-4.801,2.788-7.938,3.583c-3.14,0.794-6.441,1.194-9.906,1.194
		c-8.99,0-15.945-2.294-20.862-6.884c-4.917-4.588-7.376-11.332-7.376-20.231v-32.597h-11.66v-16.859h11.66v-16.856h21.918v16.856
		h18.825v16.859h-18.825v32.316c0,3.185,0.818,5.644,2.458,7.376c1.638,1.734,3.955,2.599,6.954,2.599
		c3.465,0,6.414-0.936,8.852-2.81L447.523,251.678z"/>
	<linearGradient id="SVGID_1_" gradientUnits="userSpaceOnUse" x1="-22.4551" y1="201.8271" x2="194.0004" y2="201.8271">
		<stop  offset="0" style="stop-color:#6B48FF"/>
		<stop  offset="1" style="stop-color:#12E2A3"/>
	</linearGradient>
	<path fill="url(#SVGID_1_)" d="M116.785,179.626h9.273h58.659c1.442,0,2.884,0.41,4.155,1.167c3.847,2.301,5.081,7.281,2.78,11.128
		l-54.675,91.111v-44.268c-0.892-10.511-9.648-18.58-20.193-18.58h-6.973H51.154c-1.442,0-2.884-0.413-4.156-1.167
		c-3.842-2.301-5.081-7.281-2.78-11.128l52.374-87.267v40.424C97.451,171.554,106.241,179.626,116.785,179.626z"/>
	<linearGradient id="SVGID_2_" gradientUnits="userSpaceOnUse" x1="109.4458" y1="193.7803" x2="109.4458" y2="521.3832">
		<stop  offset="0" style="stop-color:#6B48FF"/>
		<stop  offset="1" style="stop-color:#12E2A3"/>
	</linearGradient>
	<path fill="url(#SVGID_2_)" d="M89.448,362.296c-0.892,1.476-2.608,2.234-4.293,1.889c-2.196-0.446-3.605-2.576-3.159-4.773
		l27.816-139.228h6.973c10.545,0,19.302,8.069,20.193,18.58v44.268L89.448,362.296z"/>
	<linearGradient id="SVGID_3_" gradientUnits="userSpaceOnUse" x1="125.2749" y1="161.7231" x2="125.2749" y2="-74.6655">
		<stop  offset="0" style="stop-color:#6B48FF"/>
		<stop  offset="1" style="stop-color:#12E2A3"/>
	</linearGradient>
	<path fill="url(#SVGID_3_)" d="M150.717,35.659c2.199,0.41,3.605,2.576,3.159,4.773l-27.817,139.194h-9.273
		c-10.544,0-19.334-8.072-20.193-18.58v-40.424l49.832-83.075C147.315,36.068,149.033,35.313,150.717,35.659z"/>
</g>
</svg>
